<svg width="120" height="32" viewBox="0 0 120 32" fill="none" xmlns="http://www.w3.org/2000/svg">
  <path d="M10.5 6C6.08 6 2.5 9.58 2.5 14C2.5 18.42 6.08 22 10.5 22C14.92 22 18.5 18.42 18.5 14C18.5 9.58 14.92 6 10.5 6ZM10.5 20C7.18 20 4.5 17.32 4.5 14C4.5 10.68 7.18 8 10.5 8C13.82 8 16.5 10.68 16.5 14C16.5 17.32 13.82 20 10.5 20Z" fill="white"/>
  <path d="M26.5 6C22.08 6 18.5 9.58 18.5 14C18.5 18.42 22.08 22 26.5 22C30.92 22 34.5 18.42 34.5 14C34.5 9.58 30.92 6 26.5 6ZM26.5 20C23.18 20 20.5 17.32 20.5 14C20.5 10.68 23.18 8 26.5 8C29.82 8 32.5 10.68 32.5 14C32.5 17.32 29.82 20 26.5 20Z" fill="white"/>
  <path d="M42.5 8H44.5V22H42.5V8Z" fill="white"/>
  <path d="M48.5 8H50.5V10H50.54C51.14 8.82 52.38 7.8 54.22 7.8C57.26 7.8 58.5 9.98 58.5 12.8V22H56.5V13.4C56.5 11.12 55.72 9.6 53.48 9.6C51.52 9.6 50.5 11.24 50.5 13.18V22H48.5V8Z" fill="white"/>
  <path d="M61.5 8H63.5V22H61.5V8Z" fill="white"/>
  <path d="M74.5 22H72.5V20H72.46C71.86 21.18 70.62 22.2 68.78 22.2C65.74 22.2 64.5 20.02 64.5 17.2V8H66.5V16.6C66.5 18.88 67.28 20.4 69.52 20.4C71.48 20.4 72.5 18.76 72.5 16.82V8H74.5V22Z" fill="white"/>
  <path d="M77.5 15C77.5 11.14 80.42 7.8 84.5 7.8C88.58 7.8 91.5 11.14 91.5 15C91.5 18.86 88.58 22.2 84.5 22.2C80.42 22.2 77.5 18.86 77.5 15ZM89.5 15C89.5 12.06 87.44 9.6 84.5 9.6C81.56 9.6 79.5 12.06 79.5 15C79.5 17.94 81.56 20.4 84.5 20.4C87.44 20.4 89.5 17.94 89.5 15Z" fill="white"/>
  <path d="M93.5 8H95.5V10H95.54C96.14 8.82 97.38 7.8 99.22 7.8C102.26 7.8 103.5 9.98 103.5 12.8V22H101.5V13.4C101.5 11.12 100.72 9.6 98.48 9.6C96.52 9.6 95.5 11.24 95.5 13.18V22H93.5V8Z" fill="white"/>
  <path d="M106.5 8H108.5V9.64H108.54C109.24 8.36 110.68 7.8 112 7.8C112.24 7.8 112.5 7.82 112.74 7.86V9.86C112.4 9.8 112.1 9.76 111.76 9.76C109.5 9.76 108.5 11.38 108.5 13.48V22H106.5V8Z" fill="white"/>
</svg>
