<svg width="120" height="32" viewBox="0 0 120 32" fill="none" xmlns="http://www.w3.org/2000/svg">
  <path d="M10.5 8L15 12.5L10.5 17" stroke="currentColor" strokeWidth="1.5" strokeLinecap="round" strokeLinejoin="round"/>
  <path d="M15 12.5H3" stroke="currentColor" strokeWidth="1.5" strokeLinecap="round" strokeLinejoin="round"/>
  <path d="M7 22H17C19.2091 22 21 20.2091 21 18V7" stroke="currentColor" strokeWidth="1.5" strokeLinecap="round" strokeLinejoin="round"/>
  <path d="M28 8L32.5 12.5L28 17" stroke="currentColor" strokeWidth="1.5" strokeLinecap="round" strokeLinejoin="round"/>
  <path d="M32.5 12.5H20.5" stroke="currentColor" strokeWidth="1.5" strokeLinecap="round" strokeLinejoin="round"/>
  <path d="M24.5 22H34.5C36.7091 22 38.5 20.2091 38.5 18V7" stroke="currentColor" strokeWidth="1.5" strokeLinecap="round" strokeLinejoin="round"/>
  <path d="M45 8H48V22H45V8Z" fill="currentColor"/>
  <path d="M51 8H54L58 18L62 8H65V22H62V12L58.5 22H57.5L54 12V22H51V8Z" fill="currentColor"/>
  <path d="M68 8H71V19H77V22H68V8Z" fill="currentColor"/>
  <path d="M79 8H82V22H79V8Z" fill="currentColor"/>
  <path d="M85 8H88V19H94V22H85V8Z" fill="currentColor"/>
  <path d="M96 8H106V11H99V13H105V16H99V19H106V22H96V8Z" fill="currentColor"/>
</svg>
